# xmcd CD database file
#
# Track frame offsets:
#	150
#	48832
#	86510
#	111087
#	163827
#	194465
#
# Disc length: 3257 seconds
#
# Revision: 0
# Processed by: cddbd v1.5.1PL0 Copyright (c) Steve Scherf et al.
# Submitted via: CDex 1.60beta1
#
DISCID=470cb706
DTITLE=John Coltrane - Interstellar Space
DYEAR=1900
DGENRE=Jazz
TTITLE0=Mars
TTITLE1=Venus
TTITLE2=Jupiter
TTITLE3=Saturn
TTITLE4=Jupiter(Variation)
TTITLE5=Leo
EXTD=
EXTT0=
EXTT1=
EXTT2=
EXTT3=
EXTT4=
EXTT5=
PLAYORDER=
